<svg width="54" height="54" fill="none" xmlns="http://www.w3.org/2000/svg">
  <path d="M26.5 0S42.16-.7 50.46 15h-25.3s-4.77-.16-8.85 5.61c-1.17 2.43-2.43 4.92-1.01 9.84C13.26 27 4.5 11.79 4.5 11.79S10.67.62 26.5 0z" fill="#EF3F36"/>
  <path d="M49.65 39.82s-7.23 13.87-25 13.18L37.3 31.17s2.52-4.04-.46-10.44c-1.51-2.23-3.06-4.55-8.04-5.8 4-.03 21.61 0 21.61 0s6.6 10.93-.76 24.89z" fill="#FCD900"/>
  <path d="M3.46 39.93s-8.44-13.17 1.05-28.17L17.15 33.6s2.25 4.2 9.3 4.83c2.7-.2 5.49-.37 9.06-4.04-1.97 3.48-10.8 18.65-10.8 18.65s-12.8.23-21.25-13.1z" fill="#61BC5B"/>
  <path d="M24.64 53.13l3.56-14.8s3.9-.3 7.19-3.88c-2.04 3.57-10.75 18.68-10.75 18.68z" fill="#5AB055"/>
  <path d="M14.58 26.73c0-6.52 5.3-11.8 11.85-11.8s11.85 5.28 11.85 11.8c0 6.52-5.3 11.81-11.85 11.81a11.84 11.84 0 01-11.85-11.8z" fill="#fff"/>
  <path d="M16.56 26.73a9.85 9.85 0 019.87-9.83c5.45 0 9.87 4.4 9.87 9.83a9.85 9.85 0 01-9.87 9.84 9.86 9.86 0 01-9.87-9.84z" fill="#4285F4"/>
  <path d="M50.4 14.94l-14.64 4.29s-2.21-3.24-6.96-4.29c4.12-.02 21.6 0 21.6 0z" fill="#EACA05"/>
  <path d="M15.01 29.9A27004.9 27004.9 0 004.5 11.79l10.85 10.69s-1.11 2.28-.7 5.55l.37 1.87z" fill="#DF3A32"/>
</svg>
