<svg width="300" height="120" fill="none" xmlns="http://www.w3.org/2000/svg">
  <path fill-rule="evenodd" clip-rule="evenodd" d="M39.5 25a33.5 33.5 0 110 66.8 33.5 33.5 0 010-66.9zm4.4 16.6H27.7v33.5h6.7v-10H44a11.7 11.7 0 00.2-23.5H44zM273.7 53c3.6 0 5.2 2 5.2 5v11.6h-4.2v-10c0-2.2-1.1-3-2.9-3-1.6 0-2.9 1-3.6 2v11H264V53.3h4.2v2c1-1.2 3-2.4 5.5-2.4zm-148.8 0v4h-1.1c-1.4 0-3.3.7-4 1.7v11h-4.1V53.2h4.1v2.1a7 7 0 015.1-2.5zm10 0a8 8 0 018.4 8.3 8 8 0 01-8.4 8.3 8 8 0 01-8.4-8.3 8 8 0 018.4-8.3zm90.8-5.7v8.6h10.4v-8.6h4.7v22.3H236V60h-10.4v9.6h-4.6V47.2h4.6zM192.1 53c3.2 0 5.2 1.4 6.3 2.8l-2.8 2.6c-.7-1.1-1.9-1.7-3.3-1.7-2.5 0-4.3 1.8-4.3 4.6 0 2.7 1.8 4.6 4.3 4.6a4 4 0 003.3-1.7l2.8 2.5c-1 1.5-3 3-6.3 3a8 8 0 01-8.4-8.4 8 8 0 018.4-8.3zm14-4v4.4h3.2v3.6h-3.2V64c0 1 .6 1.8 1.5 1.8.6 0 1.2-.2 1.4-.5l.9 3.2c-.6.6-1.7 1-3.5 1-2.9 0-4.4-1.5-4.4-4.3v-8.3h-2.7v-3.6h2.7v-4.4h4.1zm82 0v4.4h3.2v3.6H288V64c0 1 .5 1.8 1.4 1.8.6 0 1.2-.2 1.5-.5l.9 3.2c-.7.6-1.8 1-3.5 1-3 0-4.5-1.5-4.5-4.3v-8.3h-2.6v-3.6h2.6v-4.4h4.2zm-126.6-1.7v22.3h-4.2v-2.4a6.1 6.1 0 01-4.9 2.4c-4 0-7-3-7-8.3 0-5.2 3-8.3 7-8.3a6 6 0 015 2.4v-8h4.1zm-56 0c4.7 0 7.3 3.2 7.3 7 0 3.9-2.6 7.1-7.3 7.1h-5.6v8.2h-4.7V47.2h10.3zm64.3 6V63c0 2.2 1.2 3 3 3 1.6 0 2.9-1 3.6-1.9V53.3h4.1v16.2h-4.1v-2.4c-1.1 1.2-3 2.4-5.6 2.4-3.5 0-5.1-1.9-5.1-5V53.3h4.1zm79.4 0V63c0 2.2 1.1 3 2.9 3 1.6 0 2.9-1 3.6-1.9V53.3h4.2v16.2h-4.2v-2.4c-1 1.2-3 2.4-5.6 2.4-3.5 0-5.1-1.9-5.1-5V53.3h4.2zm-114.3 3.4c-2.6 0-4 2.1-4 4.6 0 2.5 1.4 4.6 4 4.6s4-2.1 4-4.6c0-2.5-1.4-4.6-4-4.6zm18.8 0c-2.4 0-4 1.9-4 4.6 0 2.7 1.6 4.6 4 4.6 1.4 0 3-.7 3.6-1.8v-5.6c-.7-1-2.2-1.8-3.6-1.8zM44 48.3a5 5 0 010 10h-9.5v-10H44zm61 3h-5v5.9h5c1.8 0 3.2-1.1 3.2-3 0-1.8-1.4-2.9-3.3-2.9z" fill="#2E2E2E"/>
</svg>
