<svg width="260" height="120" viewBox="0 0 260 120" fill="none" xmlns="http://www.w3.org/2000/svg">
<mask id="mask0" mask-type="alpha" maskUnits="userSpaceOnUse" x="15" y="31" width="50" height="62">
<path d="M15 31H64.1183V92.7462H15V31Z" fill="#2E2E2E"/>
</mask>
<g mask="url(#mask0)">
<path fill-rule="evenodd" clip-rule="evenodd" d="M59.5285 72.0783C56.932 73.2136 54.8181 59.3761 58.0093 60.2178C63.3042 63.1941 62.3844 69.8169 59.5285 72.0783ZM56.7679 80.9032C53.7147 85.0732 49.5815 85.2356 48.0419 84.0742C46.4315 82.5791 47.6608 77.937 49.8682 75.3919V75.3911C52.3941 72.5836 55.0944 70.7507 56.9757 72.183C58.2419 73.4249 58.9847 78.1025 56.7679 80.9032ZM46.844 75.7501C46.8646 79.3258 43.6878 82.24 39.7485 82.2589C35.8093 82.2776 32.5988 79.3942 32.578 75.8183C32.578 75.7956 32.578 75.7729 32.578 75.7501C32.5574 72.1743 35.734 69.2601 39.6735 69.2413C43.6128 69.2225 46.8232 72.1059 46.844 75.6819C46.844 75.7047 46.844 75.7272 46.844 75.7501ZM39.7426 90.821C36.1995 90.9714 32.7255 87.964 32.771 86.9216C32.7179 85.3932 37.0851 84.2 39.9327 84.2701C42.7981 84.1468 46.6433 85.1785 46.6509 86.5471C46.6985 87.8761 43.1637 90.8789 39.7426 90.821ZM27.3995 69.6523C24.4439 67.7462 23.911 63.4254 26.2094 60.0017C28.5077 56.5782 32.7667 55.3479 35.7222 57.2542C38.6778 59.1601 39.2106 63.4809 36.9123 66.9044C34.614 70.328 30.3548 71.5584 27.3995 69.6523ZM30.5953 84.0821C28.9845 85.0389 25.0728 84.6449 22.2925 80.713C20.4177 77.4142 20.6591 74.0567 21.9757 73.0707C23.9444 71.89 26.9863 73.4846 29.3277 76.1587C31.3677 78.5784 32.2978 82.8292 30.5953 84.0821ZM19.6143 72.25C16.7583 69.9888 15.8383 63.3667 21.1333 60.3904C24.3241 59.5484 22.2106 73.3854 19.6143 72.25ZM32.092 49.7212C34.1208 50.0568 22.369 60.1583 22.188 57.9048C22.0031 52.0272 26.5848 48.8058 32.092 49.7212ZM24.8388 46.8051C25.2807 46.7149 25.4876 46.6273 25.6942 46.306C24.6071 45.9648 23.436 45.6705 22.7473 45.105C23.119 45.1097 23.4659 45.1869 23.9515 44.8555C22.9775 44.3388 21.9384 43.9296 21.1312 43.1398C21.6346 43.1279 22.1774 43.1349 22.3352 42.9527C21.444 42.4092 20.6919 41.8046 20.0693 41.1434C20.7741 41.2272 21.0716 41.1551 21.242 41.0343C20.5682 40.3551 19.7154 39.7814 19.3089 38.9442C19.8322 39.1218 20.3107 39.1898 20.6558 38.9287C20.4267 38.4201 19.4459 38.1203 18.881 36.9322C19.4319 36.9847 20.016 37.0504 20.1329 36.9322C19.8772 35.9071 19.4386 35.3306 19.0083 34.7334C20.1871 34.7162 21.9729 34.738 21.8921 34.6398L21.1634 33.9067C22.3146 33.6016 23.4928 33.9557 24.3482 34.2187C24.7321 33.9204 24.3414 33.5431 23.8727 33.1579C24.8514 33.2867 25.7354 33.5082 26.5345 33.8132C26.9617 33.4336 26.2575 33.054 25.9166 32.6746C27.4284 32.9568 28.069 33.3534 28.7053 33.7508C29.1672 33.315 28.7318 32.9447 28.4201 32.5655C29.56 32.981 30.1472 33.5174 30.7652 34.0471C30.9748 33.7687 31.2976 33.5647 30.9079 32.8929C31.717 33.3521 32.3265 33.8932 32.7776 34.4995C33.2783 34.1855 33.0759 33.7563 33.0787 33.3608C33.9196 34.0344 34.4534 34.751 35.1068 35.4508C35.2383 35.3566 35.3536 35.0366 35.4553 34.5306C37.4617 36.4468 40.2969 41.2733 36.1842 43.187C32.6859 40.3469 28.5083 38.2821 23.8789 36.733C29.8296 39.7533 33.2896 42.1972 35.1853 44.2783C34.2142 48.1103 29.1474 48.2853 27.2948 48.1777C27.674 48.0039 27.9906 47.7957 28.1028 47.4758C27.638 47.1508 25.9895 47.4415 24.8388 46.8051ZM39.6788 48.3504V48.3502C42.5952 48.3187 46.2064 50.4924 46.1919 52.5405C46.1791 54.3483 43.6558 55.8117 39.7011 55.7839C35.8287 55.7383 33.2209 53.9448 33.2301 52.1932C33.2378 50.7516 36.3922 48.2662 39.6788 48.3504ZM43.8302 34.5302C43.932 35.0361 44.0472 35.3561 44.1788 35.4504C44.832 34.7506 45.3659 34.0339 46.2069 33.3605C46.2098 33.756 46.0073 34.1851 46.5081 34.499C46.9589 33.8929 47.5683 33.3517 48.3777 32.8924C47.988 33.5643 48.3108 33.7683 48.5204 34.0467C49.1383 33.517 49.7255 32.9805 50.8653 32.5651C50.5538 32.9442 50.1182 33.3146 50.58 33.7503C51.2166 33.3531 51.8571 32.9565 53.3688 32.6742C53.0281 33.0537 52.3239 33.4333 52.7508 33.8127C53.55 33.5077 54.4342 33.2862 55.4127 33.1577C54.9442 33.5426 54.5535 33.9199 54.9374 34.2182C55.7928 33.9552 56.9708 33.6012 58.1224 33.9064L57.3932 34.6394C57.3126 34.7375 59.0984 34.7157 60.277 34.7329C59.8471 35.3302 59.4083 35.9066 59.1522 36.9322C59.2691 37.0504 59.8531 36.9847 60.4039 36.9322C59.8392 38.1203 58.8583 38.4201 58.6294 38.9287C58.9744 39.1898 59.4531 39.1218 59.9763 38.9442C59.5696 39.7814 58.717 40.3551 58.0431 41.0343C58.2136 41.1551 58.5111 41.2272 59.2157 41.1434C58.5933 41.8046 57.8412 42.4092 56.9497 42.9527C57.1077 43.1349 57.6504 43.1279 58.1539 43.1398C57.3466 43.9296 56.3073 44.3388 55.3337 44.8555C55.819 45.1869 56.1662 45.1097 56.5379 45.105C55.8491 45.6705 54.6779 45.9648 53.5907 46.306C53.7974 46.6273 54.0043 46.7149 54.4463 46.8051C53.2955 47.4415 51.6472 47.1508 51.1823 47.4758C51.2944 47.7957 51.6109 48.0039 51.9903 48.1777C50.1377 48.2853 45.0708 48.1103 44.0995 44.2783C45.996 42.196 49.4574 39.7522 55.4112 36.73C50.7789 38.2793 46.5993 40.3446 43.1014 43.1866C38.9883 41.2729 41.8237 36.4463 43.8302 34.5302ZM52.0224 69.3072C49.0668 71.2134 44.8079 69.983 42.5095 66.5593C40.2112 63.1359 40.7439 58.8151 43.6996 56.909C46.6552 55.0028 50.9142 56.233 53.2125 59.6567C55.5108 63.0804 54.978 67.4011 52.0224 69.3072ZM57.2112 58.0772C57.0301 60.3307 45.2782 50.2293 47.3072 49.8938C52.8139 48.9784 57.3961 52.1989 57.2112 58.0772ZM59.8849 59.033L59.4406 58.2541C59.4582 52.6593 56.8605 50.3789 53.8316 48.6452C54.7482 48.4038 55.6945 48.2051 55.9541 47.0547C57.529 46.6517 57.8584 45.9232 58.0163 45.1513C58.4282 44.8769 59.8068 44.1064 59.6623 42.7814C60.4341 42.2491 60.8644 41.566 60.6456 40.598C61.4751 39.6936 61.6934 38.9465 61.3412 38.2578C62.3369 37.0216 61.8951 36.3808 61.47 35.7321C62.2158 34.3805 61.5578 32.9311 59.4728 33.1739C58.6436 31.956 56.8357 32.2326 56.5561 32.2382C56.2432 31.8473 55.8305 31.5125 54.5597 31.6749C53.7369 30.9413 52.8166 31.0665 51.8674 31.4268C50.7402 30.5513 49.9945 31.2531 49.1427 31.5183C47.7782 31.0794 47.4661 31.6807 46.7959 31.9254C45.3076 31.616 44.8554 32.2898 44.1419 33.0013L43.3121 32.9851C41.0676 34.2871 39.9526 36.9385 39.5574 38.3014C39.1618 36.9382 38.0493 34.2868 35.8054 32.9851L34.9755 33.0013C34.2613 32.2898 33.8089 31.616 32.3209 31.9254C31.6505 31.6807 31.3394 31.0794 29.974 31.5183C29.4148 31.3442 28.9005 30.9822 28.2951 31.0007L28.2962 31.0011C27.9791 31.0106 27.6374 31.126 27.25 31.4271C26.3007 31.0667 25.3805 30.9416 24.5577 31.675C23.287 31.5126 22.874 31.8474 22.561 32.2384C22.2822 32.2327 20.4735 31.9562 19.6443 33.174C17.5601 32.9313 16.9013 34.3808 17.6477 35.7324C17.222 36.3811 16.7812 37.022 17.7764 38.2585C17.4243 38.9472 17.6426 39.6944 18.4721 40.5987C18.2531 41.5669 18.6836 42.2499 19.4554 42.7823C19.3109 44.1071 20.6895 44.8775 21.1012 45.1521C21.2593 45.924 21.5888 46.6525 23.1636 47.0553C23.4232 48.2059 24.3696 48.4045 25.286 48.6459C22.257 50.3792 19.6597 52.6596 19.6771 58.2549L19.2333 59.034C15.7603 61.1132 12.6355 67.7957 17.5218 73.2271C17.841 74.9275 18.3762 76.1486 18.8529 77.5002C19.5658 82.9466 24.218 85.4969 25.4451 85.7986C27.2432 87.1467 29.1582 88.426 31.7497 89.3222C34.1926 91.8023 36.8391 92.7474 39.5003 92.7462C39.5393 92.7462 39.579 92.7462 39.618 92.7462C42.2792 92.7476 44.9258 91.8025 47.3686 89.3222C49.9601 88.426 51.8752 87.1467 53.6733 85.7986C54.9004 85.4969 59.5526 82.9466 60.2655 77.5002C60.742 76.1486 61.2774 74.9275 61.5965 73.2271C66.4829 67.7952 63.3582 61.1122 59.8849 59.033Z" fill="#2E2E2E"/>
</g>
<path fill-rule="evenodd" clip-rule="evenodd" d="M74.2765 58.3469H77.8987C79.0775 58.3469 79.9565 58.098 80.5365 57.5999C81.1161 57.102 81.406 56.3644 81.406 55.3877C81.406 54.4301 81.1161 53.6686 80.5365 53.1035C79.9565 52.5385 79.1012 52.2559 77.9706 52.2559H74.2765V58.3469ZM74.2765 61.5792V69.9399H70.0791V49.0237H77.9706C80.3567 49.0237 82.2229 49.5674 83.5694 50.6542C84.9156 51.7412 85.589 53.2568 85.589 55.2008C85.589 56.2832 85.3062 57.212 84.7408 57.9878C84.1753 58.7635 83.3467 59.3909 82.2541 59.8697C83.4903 60.2337 84.3791 60.8418 84.9206 61.694C85.4618 62.5466 85.7327 63.6 85.7327 64.8545V66.3916C85.7327 66.9759 85.8118 67.5865 85.9698 68.2232C86.1279 68.8602 86.3986 69.3318 86.782 69.6382V69.9399H82.4554C82.072 69.6335 81.8229 69.1211 81.7079 68.4028C81.5929 67.6845 81.5354 67.0046 81.5354 66.3629V64.8833C81.5354 63.8394 81.2502 63.0278 80.6801 62.4483C80.1099 61.8689 79.3074 61.5792 78.2724 61.5792H74.2765Z" fill="#2E2E2E"/>
<path fill-rule="evenodd" clip-rule="evenodd" d="M94.4866 67.1381C95.2244 67.1381 95.8808 66.9563 96.4558 66.5923C97.0307 66.2285 97.4189 65.807 97.6201 65.3281V63.1302H95.2771C94.386 63.1302 93.7103 63.3529 93.2504 63.7982C92.7904 64.2435 92.5604 64.7822 92.5604 65.4143C92.5604 65.9314 92.7328 66.3481 93.0778 66.6641C93.4228 66.9801 93.8922 67.1381 94.4866 67.1381ZM98.3244 69.9394C98.1711 69.5852 98.0392 69.2117 97.9291 68.8189C97.8189 68.4264 97.7398 68.0242 97.692 67.6122C97.2608 68.3689 96.693 68.9962 95.9886 69.4941C95.2843 69.992 94.4434 70.2411 93.466 70.2411C91.8367 70.2411 90.5815 69.8223 89.6999 68.9841C88.8181 68.1462 88.3774 67.0041 88.3774 65.558C88.3774 64.0351 88.9644 62.855 90.1383 62.0168C91.312 61.1789 93.0251 60.7599 95.2771 60.7599H97.6201V59.5244C97.6201 58.7774 97.4236 58.1981 97.0307 57.7862C96.6377 57.3745 96.0581 57.1685 95.2915 57.1685C94.6109 57.1685 94.0863 57.3337 93.7176 57.6641C93.3485 57.9945 93.1641 58.4519 93.1641 59.036L89.1106 59.0216L89.0961 58.9355C89.0291 57.6235 89.5992 56.491 90.8067 55.538C92.0141 54.5852 93.6001 54.1086 95.5645 54.1086C97.4236 54.1086 98.933 54.5804 100.093 55.5236C101.252 56.4671 101.832 57.8102 101.832 59.5532V65.9745C101.832 66.7024 101.887 67.3873 101.997 68.0288C102.107 68.6705 102.282 69.3073 102.522 69.9394H98.3244Z" fill="#2E2E2E"/>
<path fill-rule="evenodd" clip-rule="evenodd" d="M113.418 65.6585C113.418 65.1989 113.195 64.8014 112.749 64.4661C112.304 64.1311 111.477 63.834 110.27 63.5755C108.43 63.2019 107.043 62.6489 106.108 61.9163C105.174 61.1836 104.707 60.1853 104.707 58.9211C104.707 57.5804 105.27 56.443 106.396 55.5092C107.522 54.5754 109.029 54.1086 110.917 54.1086C112.9 54.1086 114.479 54.5732 115.653 55.5021C116.827 56.4312 117.39 57.6043 117.342 59.0216L117.313 59.1078H113.26C113.26 58.4854 113.061 57.9778 112.663 57.585C112.265 57.1925 111.683 56.9961 110.917 56.9961C110.236 56.9961 109.702 57.1613 109.314 57.4917C108.926 57.8221 108.732 58.2365 108.732 58.7344C108.732 59.2133 108.935 59.6059 109.343 59.9123C109.75 60.2189 110.576 60.4918 111.822 60.7312C113.739 61.1143 115.162 61.6769 116.091 62.4191C117.021 63.1614 117.486 64.1837 117.486 65.4861C117.486 66.8845 116.887 68.0266 115.689 68.9123C114.491 69.7982 112.91 70.2411 110.945 70.2411C108.876 70.2411 107.239 69.7168 106.037 68.6681C104.834 67.6194 104.261 66.4248 104.319 65.0839L104.348 64.9977H108.186C108.214 65.8309 108.487 66.4342 109.005 66.8077C109.522 67.1812 110.198 67.3679 111.032 67.3679C111.808 67.3679 112.399 67.2149 112.807 66.9083C113.214 66.6019 113.418 66.1853 113.418 65.6585Z" fill="#2E2E2E"/>
<path fill-rule="evenodd" clip-rule="evenodd" d="M130.02 62.2756C130.02 60.8081 129.776 59.6189 129.287 58.7076C128.798 57.7966 128.051 57.3408 127.044 57.3408C126.412 57.3408 125.873 57.4703 125.427 57.7294C124.982 57.9884 124.63 58.3577 124.37 58.8371V65.6564C124.63 66.0977 124.982 66.4333 125.427 66.6637C125.873 66.894 126.422 67.0088 127.073 67.0088C128.089 67.0088 128.834 66.6109 129.309 65.8147C129.783 65.0188 130.02 63.9397 130.02 62.5777V62.2756ZM134.217 62.5987C134.217 64.8972 133.685 66.7456 132.622 68.1437C131.558 69.5421 130.073 70.2411 128.165 70.2411C127.351 70.2411 126.628 70.0903 125.996 69.7886C125.363 69.4869 124.821 69.0441 124.37 68.4598V75.9155H120.188V54.396H123.968L124.213 56.2347C124.673 55.5548 125.226 55.0305 125.873 54.6617C126.519 54.2931 127.275 54.1086 128.136 54.1086C130.063 54.1086 131.558 54.8606 132.622 56.364C133.685 57.8677 134.217 59.8453 134.217 62.297V62.5987Z" fill="#2E2E2E"/>
<path fill-rule="evenodd" clip-rule="evenodd" d="M146.652 62.2978C146.652 60.7756 146.428 59.569 145.983 58.6778C145.537 57.7867 144.778 57.3409 143.705 57.3409C143.053 57.3409 142.502 57.4783 142.052 57.7529C141.601 58.0276 141.247 58.4201 140.988 58.9307V65.5493C141.247 66.0216 141.604 66.3827 142.059 66.6331C142.514 66.8837 143.072 67.0089 143.734 67.0089C144.816 67.0089 145.573 66.626 146.004 65.8602C146.436 65.0943 146.652 64.0078 146.652 62.6013V62.2978ZM150.835 62.5988C150.835 64.9165 150.317 66.7696 149.282 68.1582C148.247 69.5469 146.752 70.2412 144.797 70.2412C143.896 70.2412 143.108 70.052 142.433 69.6737C141.757 69.2956 141.185 68.7425 140.715 68.0145L140.399 69.9395H136.805V47.5293H140.988V56.048C141.438 55.4257 141.978 54.9468 142.605 54.6115C143.233 54.2764 143.954 54.1087 144.768 54.1087C146.742 54.1087 148.247 54.8535 149.282 56.3425C150.317 57.8319 150.835 59.8167 150.835 62.2971V62.5988Z" fill="#2E2E2E"/>
<path fill-rule="evenodd" clip-rule="evenodd" d="M159.933 57.341C159.157 57.341 158.544 57.638 158.094 58.2316C157.643 58.8256 157.365 59.6061 157.26 60.5733L157.303 60.6451H162.449V60.2716C162.449 59.381 162.241 58.6698 161.824 58.1383C161.407 57.6068 160.777 57.341 159.933 57.341ZM160.307 70.2413C158.065 70.2413 156.273 69.5229 154.931 68.0865C153.589 66.6499 152.919 64.8255 152.919 62.6132V62.0385C152.919 59.7306 153.553 57.8295 154.823 56.3354C156.093 54.8414 157.796 54.0993 159.933 54.1087C162.032 54.1087 163.661 54.7409 164.82 56.005C165.98 57.2692 166.56 58.9787 166.56 61.1335V63.4177H157.275L157.246 63.5034C157.322 64.5243 157.665 65.3637 158.273 66.0219C158.882 66.68 159.709 67.009 160.753 67.009C161.682 67.009 162.454 66.9157 163.067 66.7289C163.68 66.5421 164.352 66.2477 165.08 65.8455L166.215 68.4375C165.583 68.957 164.754 69.3877 163.728 69.729C162.703 70.0704 161.562 70.2413 160.307 70.2413Z" fill="#2E2E2E"/>
<path fill-rule="evenodd" clip-rule="evenodd" d="M177.182 58.0017L175.644 57.9586C175.02 57.9586 174.508 58.0879 174.105 58.3464C173.703 58.605 173.396 58.969 173.185 59.4382V69.9394H169.002V54.396H172.898L173.085 56.6944C173.449 55.8805 173.921 55.246 174.501 54.791C175.081 54.3363 175.749 54.1086 176.505 54.1086C176.717 54.1086 176.911 54.1255 177.088 54.1589C177.266 54.1926 177.445 54.2332 177.627 54.281L177.182 58.0017Z" fill="#2E2E2E"/>
<path fill-rule="evenodd" clip-rule="evenodd" d="M187.489 58.0017L185.95 57.9586C185.327 57.9586 184.815 58.0879 184.412 58.3464C184.01 58.605 183.703 58.969 183.492 59.4382V69.9394H179.309V54.396H183.205L183.391 56.6944C183.755 55.8805 184.227 55.246 184.807 54.791C185.388 54.3363 186.056 54.1086 186.813 54.1086C187.024 54.1086 187.217 54.1255 187.395 54.1589C187.572 54.1926 187.752 54.2332 187.933 54.281L187.489 58.0017Z" fill="#2E2E2E"/>
<path fill-rule="evenodd" clip-rule="evenodd" d="M195.624 63.4178L195.797 64.2797H195.883L198.859 54.3962H203.372L197.062 72.2669C196.621 73.3777 196.021 74.314 195.265 75.0753C194.508 75.8368 193.373 76.2173 191.858 76.2173C191.503 76.2173 191.176 76.1886 190.874 76.1312C190.571 76.0738 190.205 75.9923 189.774 75.887L190.263 72.8271C190.387 72.8461 190.522 72.8653 190.665 72.8846C190.809 72.9037 190.939 72.9133 191.053 72.9133C191.744 72.9133 192.275 72.7432 192.648 72.4034C193.023 72.0633 193.31 71.6395 193.511 71.132L194 69.9253L188.48 54.3962H192.994L195.624 63.4178Z" fill="#2E2E2E"/>
<path fill-rule="evenodd" clip-rule="evenodd" d="M216.927 59.1227H221.067C222.236 59.1227 223.123 58.8043 223.726 58.1673C224.33 57.5305 224.632 56.719 224.632 55.7324C224.632 54.7269 224.332 53.8962 223.733 53.24C223.135 52.5841 222.246 52.2559 221.067 52.2559H216.927V59.1227ZM216.927 62.3549V69.9399H212.729V49.0237H221.067C223.472 49.0237 225.364 49.6367 226.745 50.8625C228.125 52.0885 228.815 53.7021 228.815 55.7036C228.815 57.7054 228.125 59.3143 226.745 60.5305C225.364 61.7469 223.472 62.3549 221.067 62.3549H216.927Z" fill="#2E2E2E"/>
<path fill-rule="evenodd" clip-rule="evenodd" d="M231.776 69.9395H235.973V54.3961H231.776V69.9395ZM231.776 50.6754H235.973V47.5293H231.776V50.6754Z" fill="#2E2E2E"/>
<path fill-rule="evenodd" clip-rule="evenodd" d="M242.222 51.6709C240.719 51.6709 239.499 50.4526 239.499 48.9488C239.499 47.4442 240.719 46.2269 242.222 46.2269C243.727 46.2269 244.946 47.4442 244.946 48.9488C244.946 50.4526 243.727 51.6709 242.222 51.6709ZM242.222 45.6821C240.418 45.6821 238.954 47.1445 238.954 48.9488C238.954 50.7522 240.418 52.2146 242.222 52.2146C244.028 52.2146 245.49 50.7522 245.49 48.9488C245.49 47.1445 244.028 45.6821 242.222 45.6821Z" fill="#2E2E2E"/>
<path fill-rule="evenodd" clip-rule="evenodd" d="M241.616 48.7405H242.457C242.8 48.7405 242.986 48.593 242.986 48.2408C242.986 47.9046 242.8 47.7572 242.457 47.7572H241.616V48.7405ZM240.848 47.1606H242.731C243.359 47.1606 243.755 47.5955 243.755 48.1225C243.755 48.5348 243.588 48.8428 243.201 48.9997V49.0091C243.578 49.1068 243.686 49.4731 243.711 49.8262C243.725 50.0461 243.72 50.4564 243.857 50.6529H243.089C242.996 50.432 243.005 50.0958 242.967 49.816C242.913 49.4488 242.771 49.2881 242.384 49.2881H241.616V50.6529H240.848V47.1606Z" fill="#2E2E2E"/>
</svg>
