<svg width="717" height="486" fill="none" xmlns="http://www.w3.org/2000/svg"><rect x=".8" y=".8" width="715.5" height="484.5" rx="15.3" fill="#fff" stroke="#F2F2F2" stroke-width="1.5"/><path d="M.8 16C.8 7.6 7.5.7 16 .7h685c8.4 0 15.3 6.9 15.3 15.3v23.3H.8V16z" fill="#fff" stroke="#F2F2F2" stroke-width="1.5"/><path fill-rule="evenodd" clip-rule="evenodd" d="M35.5 26a5.5 5.5 0 100-11 5.5 5.5 0 000 11z" fill="#F86D6D"/><path fill-rule="evenodd" clip-rule="evenodd" d="M54.5 26a5.5 5.5 0 100-11 5.5 5.5 0 000 11z" fill="#FFE300"/><path fill-rule="evenodd" clip-rule="evenodd" d="M73.5 26a5.5 5.5 0 100-11 5.5 5.5 0 000 11z" fill="#0BB07D"/><path d="M254.8 95.3c4.1 0 6.6-2.5 6.6-5.5 0-3.6-2.1-4.7-6.3-5.2-2.6-.4-3.2-1-3.2-2.2 0-1.2.9-2 2.6-2 1.7 0 2.6.8 2.8 2.3h3.6c-.3-3.4-2.5-5.1-6.4-5.1-3.8 0-6.3 2.2-6.3 5.1 0 3.3 1.8 4.6 6.2 5.2 2.6.4 3.3.9 3.3 2.3 0 1.3-1.1 2.2-2.9 2.2-2.5 0-3.1-1.2-3.3-2.8h-3.7c.2 3.5 2.3 5.7 7 5.7zm13.7 0c1 0 1.6-.2 2-.4v-2.7c-.3.2-.7.3-1.2.3-1 0-1.4-.5-1.4-1.5v-6h2.6v-2.6H268v-2.7h-3.5v2.7h-1.6V85h1.6v6.4c0 2.6 1.4 4 4 4zm8 0c1.9 0 3-.8 3.7-1.8V95h3.4v-8.2c0-3.4-2.2-4.6-5.2-4.6-3.1 0-5.5 1.3-5.7 4.3h3.3c.1-1.1.8-1.8 2.1-1.8 1.6 0 2 .8 2 2.3v.5h-1.3c-3.9 0-6.6 1-6.6 4 0 2.7 2 3.8 4.2 3.8zm1-2.5c-1.3 0-1.9-.6-1.9-1.5 0-1.3 1.2-1.7 3.2-1.7h1.4v1c0 1.4-1.2 2.2-2.7 2.2zm13.7 2.4c1 0 1.6-.1 2.1-.3v-2.7c-.4.2-.8.3-1.3.3-1 0-1.4-.5-1.4-1.5v-6h2.6v-2.6h-2.6v-2.7H287v2.7h-1.6V85h1.6v6.4c0 2.6 1.4 4 4 4zm4.5-.2h3.5V82.4h-3.5V95zm1.7-14.3c1.2 0 2-.8 2-1.9 0-1-.8-1.8-2-1.8-1 0-2 .8-2 1.8 0 1.1 1 2 2 2zm9.6 14.6c3.3 0 5.2-1.5 5.2-4.2s-1.7-3.4-4.8-3.9c-1.9-.3-2.5-.6-2.5-1.4 0-.7.7-1.3 1.8-1.3 1.2 0 1.8.5 2 1.5h3.2c-.3-2.8-2.4-3.8-5.2-3.8-2.6 0-5 1.3-5 3.9 0 2.4 1.3 3.4 4.7 3.9 1.8.2 2.5.6 2.5 1.5 0 .8-.6 1.3-2 1.3-1.5 0-2-.6-2.2-1.7h-3.2c.1 2.7 2 4.2 5.5 4.2zm12 0c1 0 1.7-.2 2.1-.4v-2.7c-.4.2-.8.3-1.3.3-.9 0-1.4-.5-1.4-1.5v-6h2.7v-2.6h-2.7v-2.7H315v2.7h-1.6V85h1.6v6.4c0 2.6 1.4 4 4 4zm4.6-.3h3.4V82.4h-3.4V95zm1.7-14.3c1.1 0 2-.8 2-1.9 0-1-.9-1.8-2-1.8s-2 .8-2 1.8c0 1.1.9 2 2 2zm10.6 14.6c3.7 0 5.8-2.1 6-5h-3.1c-.2 1.5-1.3 2.3-2.7 2.3-2 0-3-1.2-3-3.8v-.2c0-2.4 1.1-3.7 3-3.7 1.3 0 2.2.7 2.5 2.1h3.3c-.4-3.6-3-4.8-6-4.8a6.2 6.2 0 00-6.4 6.5v.2c0 4 2.8 6.4 6.4 6.4zm12.9 0c3.3 0 5.3-1.5 5.3-4.2s-1.8-3.4-4.9-3.9c-1.8-.3-2.4-.6-2.4-1.4 0-.7.6-1.3 1.8-1.3 1.2 0 1.7.5 2 1.5h3.1c-.3-2.8-2.4-3.8-5.2-3.8-2.5 0-5 1.3-5 3.9 0 2.4 1.4 3.4 4.7 3.9 1.8.2 2.5.6 2.5 1.5 0 .8-.6 1.3-2 1.3s-2-.6-2.1-1.7h-3.3c.1 2.7 2.1 4.2 5.5 4.2z" fill="#383738"/><path d="M50.5 91.3c0 1-.4 1.7-1.2 2.3-.8.5-1.9.8-3.3.8-1.6 0-3-.4-4-1.2-1-.8-1.5-1.8-1.5-3l-8.2-.2c0 2 .6 3.9 1.8 5.5a12 12 0 004.9 3.9c1.1.5 2.3.8 3.5 1l.2.1H30V68.6h12.5a12.7 12.7 0 00-7.9 4.6 8.4 8.4 0 00-1.6 5.1c0 2.1.5 3.8 1.3 5 .9 1.3 2 2.2 3.4 2.9a25 25 0 005.3 1.6l4.8 1c.9.3 1.6.6 2.1 1 .4.3.6.8.6 1.5z" fill="#0BB07D"/><path d="M42.6 100.5h-.3H42.6zM62 100.5H49a14 14 0 003.6-1.1c2-1 3.6-2.2 4.7-3.8a9.3 9.3 0 001.7-5.4c0-2-.4-3.6-1.3-4.9-.8-1.2-2-2.1-3.4-2.7-1.5-.6-3.3-1.1-5.4-1.5l-4.6-1a6 6 0 01-2.1-1c-.5-.3-.7-.8-.7-1.5 0-1 .4-1.6 1.1-2.1.8-.5 1.7-.8 2.9-.8 1.4 0 2.5.4 3.3 1 .8.8 1.2 1.7 1.3 2.8h8.2a9 9 0 00-1.6-5.3 11.5 11.5 0 00-4.6-3.6c-1-.5-2.2-.9-3.4-1H62v31.9z" fill="#383738"/><path stroke="#383738" d="M567.5 70.5h109v35h-109z"/><path d="M587 92h5.2v-1.3h-3.6v-7.3H587V92zm8.1.1c1 0 1.5-.3 2-.9v.8h1.4v-4.1c0-1.7-1.1-2.3-2.5-2.3s-2.6.6-2.7 2h1.4c0-.6.4-1 1.2-1 .8 0 1.1.5 1.1 1.3v.4h-.8c-1.8 0-3.2.5-3.2 2 0 1.3 1 1.8 2.1 1.8zm.4-1c-.8 0-1-.4-1-.9 0-.8.7-1 1.8-1h.7v.6c0 .8-.6 1.3-1.5 1.3zm6.8 1c1.6 0 2.5-.7 2.5-2s-.9-1.7-2.4-1.9c-1-.2-1.3-.4-1.3-.8 0-.5.4-.8 1-.8.7 0 1 .3 1.1.9h1.4c-.2-1.4-1.2-2-2.5-2-1.1 0-2.3.7-2.3 2 0 1.2.6 1.6 2.3 1.9.9.1 1.3.3 1.3.8 0 .6-.4.9-1.1.9-.9 0-1.2-.4-1.3-1h-1.4c.1 1.3 1 2 2.7 2zm5.9 0l1-.1v-1.2l-.7.1c-.5 0-.7-.2-.7-.8v-3.3h1.3v-1h-1.3v-1.5h-1.5v1.4h-.8v1.1h.8v3.4c0 1.2.6 2 1.9 2zm8 0c1.9 0 3.1-1 3.1-2.5a2 2 0 00-1.6-2.1c.8-.3 1.4-1 1.4-1.9 0-1.3-1-2.3-2.8-2.3-1.9 0-3 1.1-3 2.6h1.3c.1-.8.7-1.4 1.6-1.4 1 0 1.4.5 1.4 1.2 0 .8-.5 1.3-1.5 1.3h-.6V88h.7c1 0 1.5.5 1.5 1.4 0 .9-.5 1.4-1.6 1.4-1.2 0-1.7-.7-1.7-1.6h-1.5c0 1.7 1.2 2.8 3.2 2.8zm8-1.3c-1.3 0-2-1-2-2.9v-.4c0-2 .7-3 2-3s2 1.2 2 3v.4c0 2-.7 3-2 3zm0 1.3c2.2 0 3.6-1.6 3.6-4.2v-.4c0-2.6-1.5-4.2-3.6-4.2-2.2 0-3.6 1.6-3.6 4.2v.4c0 2.6 1.4 4.2 3.6 4.2zm9.6-1.4v-6h1c2 0 2.8 1.1 2.8 3 0 2-1 3-2.9 3h-.9zm-1.6 1.3h2.6c3 0 4.5-1.8 4.5-4.3 0-2.6-1.5-4.3-4.5-4.3h-2.6V92zm10.1.1c1 0 1.5-.3 2-.9v.8h1.4v-4.1c0-1.7-1.1-2.3-2.6-2.3-1.4 0-2.5.6-2.6 2h1.4c0-.6.4-1 1.2-1 .8 0 1.1.5 1.1 1.3v.4h-.8c-1.8 0-3.2.5-3.2 2 0 1.3 1 1.8 2.1 1.8zm.4-1c-.8 0-1-.4-1-.9 0-.8.7-1 1.8-1h.7v.6c0 .8-.7 1.3-1.5 1.3zm5.1 3h1.5l3.4-8.4h-1.4l-1.6 4-1.6-4h-1.6l2.5 5.7-1.2 2.7zm8.1-2c1.6 0 2.5-.7 2.5-2s-.8-1.7-2.3-1.9c-1-.2-1.3-.4-1.3-.8 0-.5.4-.8 1-.8.7 0 1 .3 1.1.9h1.3c-.1-1.4-1.1-2-2.4-2-1.2 0-2.4.7-2.4 2 0 1.2.6 1.6 2.3 1.9 1 .1 1.3.3 1.3.8 0 .6-.3.9-1 .9-1 0-1.3-.4-1.3-1h-1.4c0 1.3 1 2 2.6 2zM35.2 190.2c2.7 0 4.4-1.6 4.4-3.7 0-2.3-1.4-3-4.2-3.4-1.8-.3-2.1-.7-2.1-1.5s.6-1.3 1.7-1.3 1.7.5 1.9 1.5h2.4c-.2-2.2-1.7-3.4-4.3-3.4-2.5 0-4.2 1.5-4.2 3.4 0 2.2 1.2 3.1 4.2 3.5 1.6.2 2.1.6 2.1 1.5s-.7 1.5-1.9 1.5c-1.7 0-2.1-.9-2.2-1.9h-2.5c.2 2.3 1.6 3.8 4.7 3.8zm9.1 0c.6 0 1.1-.2 1.4-.3v-1.8c-.2.2-.5.2-.9.2-.5 0-.9-.3-.9-1v-4h1.8v-1.7h-1.8v-1.8h-2.3v1.8h-1v1.7h1v4.2c0 1.8 1 2.7 2.7 2.7zm5.3 0c1.3 0 2-.5 2.6-1.2v1h2.2v-5.5c0-2.2-1.4-3-3.5-3-2 0-3.6.8-3.8 2.8h2.2c.1-.7.5-1.2 1.5-1.2s1.3.6 1.3 1.6v.3h-1c-2.5 0-4.3.7-4.3 2.7 0 1.7 1.3 2.5 2.8 2.5zm.7-1.6c-.8 0-1.2-.4-1.2-1 0-1 .8-1.2 2.1-1.2h1v.7c0 .9-.9 1.5-1.9 1.5zm9.2 1.6c.6 0 1-.2 1.4-.3v-1.8c-.3.2-.6.2-1 .2-.5 0-.8-.3-.8-1v-4h1.7v-1.7h-1.7v-1.8h-2.3v1.8h-1.1v1.7h1v4.2c0 1.8 1 2.7 2.8 2.7zm3-.2h2.3v-8.4h-2.3v8.4zm1.1-9.5c.8 0 1.4-.5 1.4-1.3 0-.7-.6-1.2-1.4-1.2-.7 0-1.3.5-1.3 1.2 0 .8.6 1.3 1.3 1.3zm6.4 9.7c2.2 0 3.5-1 3.5-2.8 0-1.8-1.2-2.3-3.3-2.6-1.2-.2-1.6-.4-1.6-1 0-.4.5-.8 1.2-.8.8 0 1.2.3 1.3 1h2.2c-.3-1.9-1.6-2.6-3.5-2.6-1.7 0-3.3.9-3.3 2.6 0 1.7.8 2.3 3 2.7 1.3.1 1.8.4 1.8 1 0 .5-.4.9-1.3.9-1 0-1.4-.5-1.5-1.2h-2.2c.1 1.8 1.4 2.8 3.7 2.8zm8 0c.6 0 1.1-.2 1.4-.3v-1.8c-.2.2-.5.2-.9.2-.5 0-.9-.3-.9-1v-4h1.8v-1.7h-1.8v-1.8h-2.3v1.8h-1v1.7h1v4.2c0 1.8 1 2.7 2.7 2.7zm3-.2h2.4v-8.4H81v8.4zm1.2-9.5c.7 0 1.3-.5 1.3-1.3 0-.7-.6-1.2-1.3-1.2-.7 0-1.3.5-1.3 1.2 0 .8.6 1.3 1.3 1.3zm7 9.7c2.5 0 4-1.4 4-3.4h-2c-.1 1-.9 1.6-1.8 1.6-1.3 0-2-.8-2-2.5v-.1c0-1.6.7-2.5 2-2.5.9 0 1.5.4 1.6 1.4h2.2c-.2-2.4-2-3.3-3.9-3.3a4.2 4.2 0 00-4.3 4.4v.1c0 2.8 1.8 4.3 4.3 4.3zm8.7 0c2.2 0 3.5-1 3.5-2.8 0-1.8-1.2-2.3-3.3-2.6-1.2-.2-1.6-.4-1.6-1 0-.4.4-.8 1.2-.8.8 0 1.2.3 1.3 1h2.1c-.2-1.9-1.6-2.6-3.4-2.6-1.7 0-3.3.9-3.3 2.6 0 1.7.8 2.3 3 2.7 1.3.1 1.8.4 1.8 1 0 .5-.5.9-1.4.9-1 0-1.3-.5-1.4-1.2h-2.2c0 1.8 1.4 2.8 3.7 2.8z" fill="#383738"/><path opacity=".3" d="M31.3 152h4.4c2.5 0 4-1 4-3.2 0-1.6-.8-2.4-2.4-2.8 1.3-.4 1.9-1.3 1.9-2.4 0-2.1-1.4-3-3.8-3h-4V152zm2-1.5v-3.7h2c1.6 0 2.2.6 2.2 1.8 0 1.2-.6 1.9-2 1.9h-2.1zm0-5.1V142h1.8c1.4 0 2 .4 2 1.5v.1c0 1.2-.5 1.7-2 1.7h-1.7zm8.2 6.6h1.9v-4.4c0-1.7 1-2.3 2.7-2.3v-1.8c-1.4 0-2.2.6-2.7 1.7v-1.6h-2v8.4zm8.4.2c1.2 0 2-.5 2.5-1.2v1h2v-5.5c0-2.3-1.5-3-3.4-3s-3.4.8-3.6 2.7h1.9c0-.8.6-1.3 1.6-1.3 1.1 0 1.5.6 1.5 1.7v.4h-1c-2.5 0-4.3.7-4.3 2.7 0 1.7 1.2 2.5 2.8 2.5zm.4-1.4c-1 0-1.3-.5-1.3-1.2 0-1 1-1.4 2.4-1.4h1v.9c0 1-.9 1.7-2 1.7zm6.2 1.2h2v-5c0-1.3.9-2 2-2s1.6.6 1.6 2v5h2v-5.3c0-2.3-1.2-3.2-3-3.2-1.3 0-2.2.6-2.6 1.5v-1.4h-2v8.4zm13 .2c1.1 0 2.2-.8 2.7-1.6v1.4H74v-12.2h-2v5.1c-.4-.8-1.2-1.4-2.6-1.4-2.2 0-3.8 1.7-3.8 4.3v.2c0 2.7 1.6 4.2 3.7 4.2zm.4-1.6c-1.3 0-2.2-.9-2.2-2.7v-.1c0-1.8.8-2.8 2.3-2.8 1.4 0 2.2.9 2.2 2.7v.2c0 1.8-1 2.7-2.3 2.7zm10.2 1.6c2.1 0 3.6-1 3.8-2.8H82c0 .9-.7 1.3-1.9 1.3-1.4 0-2.2-.9-2.3-2.5H84v-.5c0-3-2-4.2-4-4.2-2.4 0-4.2 1.7-4.2 4.3v.1c0 2.6 1.8 4.3 4.3 4.3zm-2.2-5.3c.1-1.3 1-2 2.1-2 1.2 0 2 .6 2 2H78zm11 5.3c1.2 0 2.2-.8 2.7-1.6v1.4h2v-12.2h-2v5.1c-.5-.8-1.3-1.4-2.7-1.4-2.2 0-3.8 1.7-3.8 4.3v.2c0 2.7 1.6 4.2 3.7 4.2zm.4-1.6c-1.2 0-2.2-.9-2.2-2.7v-.1c0-1.8.9-2.8 2.3-2.8s2.2.9 2.2 2.7v.2c0 1.8-1 2.7-2.3 2.7zm10.5 1.4h7v-1.7h-4.9v-9.7h-2.1V152zm8.7 0h2v-8.4h-2v8.4zm1-9.7c.6 0 1-.5 1-1.1 0-.7-.4-1.2-1-1.2-.7 0-1.2.5-1.2 1.2 0 .6.5 1 1.1 1zm3.3 9.7h2v-5c0-1.3.8-2 1.9-2 1.1 0 1.6.6 1.6 2v5h2v-5.3c0-2.3-1.2-3.2-2.9-3.2-1.4 0-2.3.6-2.7 1.5v-1.4h-2v8.4zm9.7 0h2v-4.1l3 4.1h2.3l-3.5-4.5 3.3-3.9h-2.2l-3 3.7v-7.5h-1.9V152zm11.4.2c2.1 0 3.3-1 3.3-2.7 0-1.8-1.2-2.3-3.1-2.6-1.4-.2-1.8-.4-1.8-1s.5-1 1.4-1c.9 0 1.3.3 1.5 1h1.7c-.2-1.8-1.5-2.4-3.2-2.4-1.6 0-3.2.8-3.2 2.5 0 1.5.8 2.2 3 2.5 1.3.2 1.8.5 1.8 1.2s-.4 1-1.5 1c-1 0-1.5-.5-1.6-1.3h-1.8c0 1.8 1.3 2.8 3.5 2.8zM36.3 228.2c2.7 0 4.7-1.4 5-4.2h-2c-.3 1.6-1.4 2.4-3 2.4-2 0-3.3-1.5-3.3-4v-.2c0-2.6 1.3-4.1 3.3-4.1 1.7 0 2.5.8 2.7 2.3h2.2c-.3-2.7-2.3-4-5-4-3.1 0-5.5 2.4-5.5 5.8v.2c0 3.5 2 5.8 5.6 5.8zm6.8-.2H45v-12.2h-2V228zm4.3 0h2v-8.4h-2v8.4zm1-9.7c.6 0 1.1-.5 1.1-1.1 0-.7-.5-1.2-1.2-1.2-.6 0-1.1.5-1.1 1.2 0 .6.5 1 1.1 1zm7 9.9c2.2 0 3.7-1.4 3.8-3.3h-1.7c-.2 1.2-1 1.8-2 1.8-1.5 0-2.4-1-2.4-2.8v-.1c0-1.8 1-2.8 2.3-2.8 1 0 1.8.5 2 1.6h1.8c-.2-2.3-2-3.1-3.8-3.1a4.1 4.1 0 00-4.3 4.3v.1c0 2.7 1.9 4.3 4.3 4.3zm5.5-.2h2v-4.1l3 4.1h2.3l-3.5-4.5 3.2-3.9h-2l-3 3.7v-7.5h-2V228zm11.4.2c2 0 3.3-1 3.3-2.7 0-1.8-1.2-2.3-3.1-2.6-1.4-.2-1.8-.4-1.8-1s.5-1 1.4-1c.9 0 1.3.3 1.4 1h1.8c-.2-1.8-1.5-2.4-3.2-2.4-1.6 0-3.2.8-3.2 2.5 0 1.5.8 2.2 3 2.5 1.3.2 1.8.5 1.8 1.2s-.4 1-1.5 1-1.5-.5-1.6-1.3h-1.9c.1 1.8 1.4 2.8 3.6 2.8zm12.9 0c2.5 0 4.2-1.6 4.2-3.6 0-2.3-1.4-3-4.1-3.4-2-.3-2.4-.8-2.4-1.7 0-.9.7-1.5 2-1.5s2 .5 2.2 1.7h2c-.3-2.2-1.8-3.3-4.2-3.3-2.4 0-4 1.4-4 3.3 0 2.1 1.3 3 4 3.3 1.9.3 2.4.7 2.4 1.8 0 1-.9 1.8-2.1 1.8-2 0-2.4-1-2.6-2.2h-2c.1 2.2 1.4 3.8 4.6 3.8zm9 0c.5 0 1-.2 1.2-.3v-1.5l-1 .2c-.5 0-.9-.4-.9-1.1V221h1.9v-1.5h-1.9v-1.8h-2v1.8h-1v1.5h1v4.6c0 1.5 1 2.4 2.6 2.4zm3-.2H99v-4.4c0-1.7 1-2.3 2.7-2.3v-1.8c-1.4 0-2.2.6-2.7 1.7v-1.6h-2v8.4zm9.9.2c2 0 3.5-1 3.8-2.8H109c-.1.9-.7 1.3-1.9 1.3-1.4 0-2.2-.9-2.3-2.5h6.1v-.5c0-3-1.8-4.2-4-4.2-2.3 0-4 1.7-4 4.3v.1c0 2.6 1.7 4.3 4.2 4.3zm-2.3-5.3c.2-1.3 1-2 2.2-2 1.2 0 2 .6 2 2h-4.2zm10.1 5.3c1.3 0 2-.5 2.6-1.2v1h1.9v-5.5c0-2.3-1.5-3-3.4-3-1.8 0-3.4.8-3.5 2.7h1.8c.1-.8.6-1.3 1.6-1.3 1.2 0 1.5.6 1.5 1.7v.4h-1c-2.4 0-4.3.7-4.3 2.7 0 1.7 1.3 2.5 2.8 2.5zm.5-1.4c-1 0-1.4-.5-1.4-1.2 0-1 1-1.4 2.5-1.4h1v.9c0 1-1 1.7-2.1 1.7zm6.2 1.2h2v-5c0-1.3.8-2 1.8-2s1.5.6 1.5 1.8v5.2h2v-5c0-1.3.8-2 1.7-2 1 0 1.5.6 1.5 1.8v5.2h2v-5.3c0-2.3-1.3-3.2-2.8-3.2-1 0-2.2.4-2.8 1.5-.5-1-1.3-1.5-2.4-1.5-1.2 0-2.2.6-2.6 1.4v-1.3h-1.9v8.4zM33.4 264.3v-8h1.3c2.7 0 3.8 1.4 3.8 3.9v.1c0 2.5-1.3 4-3.8 4h-1.3zm-2 1.7h3.4c4 0 5.9-2.4 5.9-5.7v-.1c0-3.4-2-5.6-6-5.6h-3.4V266zm15-1.3c-1.6 0-2.4-1.1-2.4-2.8v-.2c0-1.7.9-2.7 2.3-2.7 1.5 0 2.3 1 2.3 2.8 0 1.8-.8 2.9-2.3 2.9zm-.1 1.5c2.5 0 4.3-1.7 4.3-4.3v-.2c0-2.5-1.8-4.2-4.3-4.2a4.1 4.1 0 00-4.3 4.3v.1c0 2.5 1.8 4.3 4.3 4.3zm6-.2h2v-5c0-1.3.9-2 1.8-2 1 0 1.5.6 1.5 1.8v5.2h2v-5c0-1.3.8-2 1.8-2s1.5.6 1.5 1.8v5.2h2v-5.3c0-2.3-1.3-3.2-2.9-3.2-1 0-2.2.4-2.8 1.5-.4-1-1.3-1.5-2.4-1.5-1.2 0-2.1.6-2.5 1.4v-1.3h-2v8.4zm17 .2c1.2 0 2-.5 2.5-1.2v1h1.9v-5.5c0-2.3-1.5-3-3.3-3-2 0-3.5.8-3.6 2.7h1.8c.1-.8.6-1.3 1.6-1.3 1.2 0 1.6.6 1.6 1.7v.4h-1c-2.5 0-4.4.7-4.4 2.7 0 1.7 1.3 2.5 2.8 2.5zm.4-1.4c-1 0-1.3-.5-1.3-1.2 0-1 .9-1.4 2.4-1.4h1v.9c0 1-1 1.7-2.1 1.7zM76 266h1.9v-8.4h-2v8.4zm1-9.7c.5 0 1-.5 1-1.1 0-.7-.5-1.2-1-1.2-.7 0-1.2.5-1.2 1.2 0 .6.5 1 1.1 1zm3.3 9.7h1.9v-5c0-1.3.9-2 2-2s1.6.6 1.6 2v5h2v-5.3c0-2.3-1.2-3.2-2.9-3.2-1.4 0-2.3.6-2.7 1.5v-1.4h-2v8.4zm17.6.2c2.5 0 4.2-1.6 4.2-3.6 0-2.3-1.4-3-4.1-3.4-2-.3-2.4-.8-2.4-1.7 0-.9.7-1.5 2-1.5s2 .5 2.2 1.7h2c-.3-2.2-1.8-3.3-4.2-3.3-2.4 0-4 1.4-4 3.3 0 2.1 1.3 3 4 3.3 1.9.3 2.4.7 2.4 1.8 0 1-.9 1.8-2.1 1.8-2 0-2.4-1-2.6-2.2h-2c.1 2.2 1.4 3.8 4.6 3.8zm9.7 0c2.2 0 3.6-1 3.9-2.8h-1.9c-.1.9-.7 1.3-2 1.3s-2.1-.9-2.2-2.5h6.1v-.5c0-3-1.9-4.2-4-4.2-2.3 0-4 1.7-4 4.3v.1c0 2.6 1.7 4.3 4.1 4.3zm-2.2-5.3c.2-1.3 1-2 2.2-2 1.2 0 1.9.6 2 2h-4.2zm10.7 5.2c.6 0 1 0 1.3-.2v-1.5l-1 .2c-.5 0-.9-.4-.9-1.1V259h1.8v-1.5h-1.8v-1.8h-2v1.8h-1v1.5h1v4.6c0 1.5 1 2.4 2.6 2.4zm5.9 0c.6 0 1 0 1.3-.2v-1.5l-1 .2c-.5 0-.9-.4-.9-1.1V259h1.8v-1.5h-1.8v-1.8h-2v1.8h-1v1.5h1v4.6c0 1.5 1 2.4 2.6 2.4zm3.1-.1h2v-8.4h-2v8.4zm1-9.7c.6 0 1.1-.5 1.1-1.1 0-.7-.5-1.2-1.2-1.2-.6 0-1.1.5-1.1 1.2 0 .6.5 1 1.1 1zm3.3 9.7h2v-5c0-1.3.8-2 2-2 1 0 1.6.6 1.6 2v5h2v-5.3c0-2.3-1.3-3.2-3-3.2-1.3 0-2.3.6-2.7 1.5v-1.4h-1.9v8.4zm13.3 3c2.6 0 4.2-1.2 4.3-3.6v-7.8h-2v1.3c-.5-.8-1.3-1.4-2.7-1.4-2.1 0-3.7 1.7-3.7 4v.2c0 2.4 1.6 4 3.7 4 1.2 0 2.3-.8 2.7-1.6v1.2c0 1.5-.8 2.3-2.3 2.3-1.3 0-2-.5-2-1.3h-2c.2 1.6 1.4 2.8 4 2.8zm0-4.8c-1.2 0-2.1-1-2.1-2.5v-.2c0-1.5.8-2.5 2.2-2.5 1.4 0 2.3 1 2.3 2.5v.1c0 1.6-1 2.6-2.3 2.6zm9.4 2c2.2 0 3.4-1 3.4-2.7 0-1.8-1.2-2.3-3.2-2.6-1.3-.2-1.7-.4-1.7-1s.5-1 1.3-1c1 0 1.4.3 1.5 1h1.8c-.2-1.8-1.6-2.4-3.3-2.4-1.5 0-3.1.8-3.1 2.5 0 1.5.8 2.2 3 2.5 1.3.2 1.8.5 1.8 1.2s-.5 1-1.5 1c-1.1 0-1.6-.5-1.7-1.3h-1.8c.1 1.8 1.4 2.8 3.5 2.8zM33.6 304h2.1v-9.8H39v-1.6h-8.5v1.6h3.2v9.8zm6.3 0h2v-4.4c0-1.7 1-2.3 2.7-2.3v-1.8c-1.4 0-2.2.6-2.7 1.7v-1.6h-2v8.4zm8.4.2c1.3 0 2-.5 2.6-1.2v1h1.9v-5.5c0-2.3-1.5-3-3.4-3-1.8 0-3.4.8-3.6 2.7h2c0-.8.5-1.3 1.5-1.3 1.2 0 1.5.6 1.5 1.7v.4h-1c-2.4 0-4.3.7-4.3 2.7 0 1.7 1.3 2.5 2.8 2.5zm.5-1.4c-1 0-1.4-.5-1.4-1.2 0-1 1-1.4 2.4-1.4h1v.9c0 1-.8 1.7-2 1.7zm9.9 1.4c2.2 0 3.7-1.4 3.8-3.3h-1.7c-.2 1.2-1 1.8-2 1.8-1.5 0-2.4-1-2.4-2.8v-.1c0-1.8 1-2.8 2.3-2.8 1 0 1.8.5 2 1.6h1.8c-.2-2.3-2-3.1-3.8-3.1a4.1 4.1 0 00-4.3 4.3v.1c0 2.7 1.9 4.3 4.3 4.3zm5.5-.2h2v-4.1l3 4.1h2.3l-3.5-4.5 3.2-3.9h-2l-3 3.7v-7.5h-2V304zm8.7 0h2v-8.4h-2v8.4zm1-9.7c.6 0 1-.5 1-1.1 0-.7-.4-1.2-1-1.2-.7 0-1.2.5-1.2 1.2 0 .6.5 1 1.1 1zm3.3 9.7h2v-5c0-1.3.8-2 1.9-2 1.1 0 1.7.6 1.7 2v5h1.9v-5.3c0-2.3-1.2-3.2-2.9-3.2-1.4 0-2.3.6-2.7 1.5v-1.4h-2v8.4zm13.3 3c2.6 0 4.2-1.2 4.2-3.6v-7.8h-1.9v1.3c-.5-.8-1.3-1.4-2.7-1.4-2.1 0-3.7 1.7-3.7 4v.2c0 2.4 1.6 4 3.7 4 1.2 0 2.2-.8 2.7-1.6v1.2c0 1.5-.8 2.3-2.3 2.3-1.3 0-2-.5-2-1.3h-2c.2 1.6 1.4 2.8 4 2.8zm0-4.8c-1.2 0-2.2-1-2.2-2.5v-.2c0-1.5.9-2.5 2.3-2.5s2.3 1 2.3 2.5v.1c0 1.6-1 2.6-2.4 2.6zM33.4 340.3v-8h1.3c2.7 0 3.8 1.4 3.8 3.9v.1c0 2.5-1.3 4-3.8 4h-1.3zm-2 1.7h3.4c4 0 5.9-2.4 5.9-5.7v-.1c0-3.4-2-5.6-6-5.6h-3.4V342zm14.9.2c2.1 0 3.5-1 3.8-2.8h-1.9c-.1.9-.7 1.3-1.9 1.3-1.4 0-2.2-.9-2.3-2.5h6.1v-.5c0-3-1.8-4.2-4-4.2-2.3 0-4 1.7-4 4.3v.1c0 2.6 1.7 4.3 4.2 4.3zm-2.3-5.3c.2-1.3 1-2 2.2-2 1.2 0 2 .6 2 2H44zm11.5 5.3c2.2 0 3.6-1 3.9-2.8h-1.9c-.1.9-.7 1.3-2 1.3-1.4 0-2.2-.9-2.2-2.5h6.1v-.5c0-3-1.9-4.2-4-4.2-2.3 0-4.1 1.7-4.1 4.3v.1c0 2.6 1.8 4.3 4.2 4.3zm-2.2-5.3c.2-1.3 1-2 2.2-2 1.2 0 1.9.6 2 2h-4.2zm7.8 8h2v-4.2a3 3 0 002.7 1.5c2.2 0 3.7-1.7 3.7-4.4 0-2.8-1.6-4.3-3.7-4.3-1.2 0-2.3.7-2.7 1.5v-1.4h-2V345zm4.2-4.3c-1.4 0-2.3-.9-2.3-2.7v-.2c0-1.8 1-2.7 2.3-2.7 1.3 0 2.2.9 2.2 2.7v.2c0 1.8-.7 2.7-2.2 2.7zm10 1.4h7v-1.7h-5v-9.7h-2V342zm8.6 0h2v-8.4h-2v8.4zm1-9.7c.6 0 1.1-.5 1.1-1.1 0-.7-.5-1.2-1.1-1.2-.7 0-1.2.5-1.2 1.2 0 .6.5 1 1.2 1zm3.3 9.7h2v-5c0-1.3.8-2 2-2 1 0 1.6.6 1.6 2v5h2v-5.3c0-2.3-1.2-3.2-3-3.2-1.3 0-2.2.6-2.6 1.5v-1.4h-2v8.4zm9.8 0h1.9v-4.1l3.1 4.1h2.3l-3.5-4.5 3.2-3.9H103l-3 3.7v-7.5h-2V342zm11.3.2c2.2 0 3.4-1 3.4-2.7 0-1.8-1.2-2.3-3.2-2.6-1.3-.2-1.7-.4-1.7-1s.5-1 1.3-1c1 0 1.3.3 1.5 1h1.8c-.2-1.8-1.6-2.4-3.3-2.4-1.5 0-3.1.8-3.1 2.5 0 1.5.8 2.2 3 2.5 1.2.2 1.8.5 1.8 1.2s-.5 1-1.5 1c-1.1 0-1.6-.5-1.7-1.3h-1.8c0 1.8 1.4 2.8 3.5 2.8z" fill="#383738"/><rect x="247" y="170" width="110" height="8" rx="4" fill="#F2F2F2"/><rect x="247" y="432" width="110" height="8" rx="4" fill="#F2F2F2"/><rect x="247" y="448" width="90" height="8" rx="4" fill="#F2F2F2"/><rect x="407" y="432" width="50" height="8" rx="4" fill="#F2F2F2"/><rect x="407" y="448" width="90" height="8" rx="4" fill="#F2F2F2"/><rect x="567" y="432" width="100" height="8" rx="4" fill="#F2F2F2"/><rect x="567" y="448" width="90" height="8" rx="4" fill="#F2F2F2"/><rect x="247" y="186" width="50" height="8" rx="4" fill="#F2F2F2"/><rect x="407" y="186" width="84" height="8" rx="4" fill="#F2F2F2"/><rect x="567" y="186" width="21" height="8" rx="4" fill="#F2F2F2"/><rect x="407" y="170" width="110" height="8" rx="4" fill="#F2F2F2"/><rect x="567" y="170" width="110" height="8" rx="4" fill="#F2F2F2"/><path d="M288 153h13v-3h-6.8l3.3-3.1c2-2 3.3-3.8 3.3-6 0-3.2-2.2-5.3-6-5.3s-6.2 2.2-6.4 6.1h3.5c.3-2.2 1.3-3.1 2.8-3.1 1.5 0 2.2.9 2.2 2.3 0 1.6-1 3-2.7 4.8l-6.3 6.7v.6zm21.4.3c4.2 0 6.6-2 6.6-5.3 0-2.2-1.3-3.6-3.3-4 1.7-.6 2.8-1.8 2.8-3.7 0-2.7-2.2-4.7-6-4.7s-6 2.3-6.3 5.4h3.5c.2-1.6 1.2-2.5 2.8-2.5 1.6 0 2.4.9 2.4 2 0 1.6-.8 2.4-2.6 2.4H308v2.6h1.4c1.8 0 2.7.8 2.7 2.4 0 1.6-.9 2.5-2.8 2.5-2.1 0-3-1.2-3.1-2.8h-3.5c.1 3.4 2.3 5.7 6.7 5.7zm12.5-11.4c-1 0-1.7-.7-1.7-2s.7-2.1 1.7-2.1 1.6.8 1.6 2c0 1.4-.6 2.1-1.6 2.1zm0 2.2c2.5 0 4.3-1.8 4.3-4.3 0-2.4-1.9-4.1-4.3-4.1a4.2 4.2 0 00-4.3 4.2c0 2.4 1.7 4.2 4.3 4.2zm-2 8.9h2.1l11.4-17.2h-2.1L319.9 153zm11.5-2c-1 0-1.7-.6-1.7-2 0-1.3.7-2 1.7-2s1.6.7 1.6 2-.6 2-1.6 2zm0 2.3c2.5 0 4.3-1.9 4.3-4.3 0-2.5-2-4.2-4.3-4.2a4.2 4.2 0 00-4.4 4.2c0 2.4 1.8 4.3 4.4 4.3z" fill="#FF6C6C"/><path fill-rule="evenodd" clip-rule="evenodd" d="M275 152.6c-.6.5-1.4.5-2 0l-5.5-5a1.5 1.5 0 012-2.2l3 2.7V140a1.5 1.5 0 013 0v8.1l3-2.7a1.5 1.5 0 012 2.2l-5.5 5z" fill="#FF6C6C"/><path d="M454.7 153.3c3.8 0 6.7-1.9 6.7-5.2 0-2-1.2-3.6-3.2-4.3 1.5-.6 2.5-1.8 2.5-3.5 0-3-2.7-4.7-6-4.7-3.2 0-6 1.7-6 4.7 0 1.7.8 3 2.4 3.6-2 .7-3.2 2.2-3.2 4.3 0 3.3 3 5 6.8 5zm0-2.9c-1.6 0-2.9-.9-2.9-2.6 0-1.7 1.3-2.6 2.9-2.6 1.6 0 2.8.9 2.8 2.6 0 1.7-1.2 2.6-2.8 2.6zm0-7.6c-1.3 0-2.5-.9-2.5-2.3 0-1.3 1.1-2.2 2.5-2.2s2.4.9 2.4 2.2c0 1.4-1 2.3-2.4 2.3zm14.8 10.4c4.6 0 7.2-3.1 7.2-8.7v-.8c0-5-2.3-8.1-7-8.1-4.1 0-6.7 2.4-6.7 6 0 3.4 2.5 5.5 5.8 5.5 2 0 3.3-.9 4-2.1 0 3.5-1.1 5.3-3.4 5.3-1.6 0-2.3-.8-2.6-2h-3.6c.4 3.2 2.6 5 6.3 5zm.1-8.7c-1.7 0-2.8-1.3-2.8-3 0-1.9 1.1-3.1 2.8-3.1 1.8 0 3 1.2 3 3.2 0 1.7-1.2 2.9-3 2.9zm13-2.6c-1 0-1.7-.7-1.7-2s.7-2.1 1.7-2.1 1.6.8 1.6 2c0 1.4-.6 2.1-1.6 2.1zm0 2.2c2.5 0 4.3-1.8 4.3-4.3 0-2.4-2-4.1-4.3-4.1a4.2 4.2 0 00-4.4 4.2c0 2.4 1.8 4.2 4.4 4.2zm-2 8.9h2.1l11.4-17.2h-2.2L480.5 153zm11.4-2c-1 0-1.6-.6-1.6-2 0-1.3.6-2 1.6-2s1.7.7 1.7 2-.6 2-1.7 2zm0 2.3c2.6 0 4.4-1.9 4.4-4.3 0-2.5-2-4.2-4.4-4.2a4.2 4.2 0 00-4.3 4.2c0 2.4 1.8 4.3 4.3 4.3z" fill="#0BB07D"/><path fill-rule="evenodd" clip-rule="evenodd" d="M434 138.9c-.6-.5-1.4-.5-2 0l-5.5 5a1.5 1.5 0 002 2.2l3-2.7v8.1a1.5 1.5 0 003 0v-8.1l3 2.7a1.5 1.5 0 002-2.2l-5.5-5z" fill="#0BB07D"/><path d="M616.9 153h3.9v-17.2h-3.5l-4 2.8v3.4l3.6-2.3V153zm14.7-2.8c-2.4 0-3.7-1.8-3.7-5.4v-.8c0-3.6 1.2-5.4 3.6-5.4 2.4 0 3.6 2 3.6 5.4v.8c0 3.6-1 5.4-3.5 5.4zm-.1 3c4.6 0 7.5-3.2 7.5-8.5v-.7c0-5.4-3-8.4-7.5-8.4-4.4 0-7.5 3.1-7.5 8.4v.8c0 5.3 3 8.5 7.5 8.5zm10.1-.2h3.5v-6l4.1 6h4l-5-6.8 4.6-5.8h-3.7l-4 5.4v-11h-3.5V153z" fill="#0BB07D"/><path fill-rule="evenodd" clip-rule="evenodd" d="M600 138.9c-.6-.5-1.4-.5-2 0l-5.5 5a1.5 1.5 0 002 2.2l3-2.7v8.1a1.5 1.5 0 003 0v-8.1l3 2.7a1.5 1.5 0 002-2.2l-5.5-5z" fill="#0BB07D"/><path fill="#F2F2F2" d="M247 299h430v-1H247zM247 370h430v-1H247z"/><path d="M577 370h24V234l-12 2-12 4.5V370zM450 370h24v-99l-12 10.4h-12V370zM323 304h24v66h-24z" fill="#FFF2EF"/><path d="M272.1 414h3.9c2.2 0 3.4-1 3.4-2.8 0-1.4-.6-2.1-2-2.4 1.2-.4 1.6-1.2 1.6-2.2 0-1.8-1.2-2.6-3.3-2.6h-3.6v10zm1.9-1.3v-3.2h1.6c1.4 0 2 .5 2 1.5 0 1.1-.6 1.7-1.8 1.7H274zm0-4.5v-2.9h1.5c1.2 0 1.7.4 1.7 1.4 0 1-.5 1.5-1.7 1.5H274zm7 5.8h1.7v-3.8c0-1.6 1-2 2.4-2v-1.6c-1.2 0-2 .5-2.4 1.4v-1.3H281v7.3zm8.7-1.2c-1.3 0-2-1-2-2.4v-.1c0-1.5.8-2.4 2-2.4 1.3 0 2 .9 2 2.4 0 1.6-.7 2.5-2 2.5zm0 1.3c2.2 0 3.8-1.4 3.8-3.7v-.1c0-2.3-1.6-3.8-3.8-3.8a3.6 3.6 0 00-3.7 3.8v.1c0 2.2 1.6 3.7 3.7 3.7zm6.6-.1h1.8l1.4-5 1.4 5h1.7l2.3-7.3h-1.6l-1.6 5.3-1.4-5.3H299l-1.6 5.3-1.4-5.3H294l2.2 7.3zm12.4.1c1.9 0 3-.8 3-2.3 0-1.6-1-2-2.8-2.2-1.2-.2-1.5-.4-1.5-1 0-.5.4-.8 1.2-.8.7 0 1.1.3 1.3 1h1.5c-.2-1.7-1.3-2.3-2.8-2.3-1.4 0-2.8.8-2.8 2.2 0 1.4.7 2 2.7 2.2 1 .2 1.5.5 1.5 1 0 .7-.4 1-1.3 1-1 0-1.4-.4-1.4-1.2h-1.6c0 1.6 1.1 2.4 3 2.4zm7.7 0c1.8 0 3-.8 3.3-2.3h-1.6c-.2.7-.7 1-1.7 1-1.3 0-2-.7-2-2h5.3v-.6c0-2.6-1.6-3.7-3.4-3.7-2.1 0-3.7 1.5-3.7 3.8v.1c0 2.3 1.6 3.7 3.8 3.7zm-2-4.5c.2-1.2.9-1.8 1.9-1.8 1 0 1.7.5 1.8 1.8h-3.7zm6.9 4.4h1.6v-3.8c0-1.6 1-2 2.4-2v-1.6c-1.2 0-1.9.5-2.4 1.4v-1.3h-1.6v7.3zm8 .1c1.9 0 3-.8 3-2.3 0-1.6-1-2-2.8-2.2-1.2-.2-1.5-.4-1.5-1 0-.5.4-.8 1.2-.8.7 0 1.1.3 1.3 1h1.5c-.2-1.7-1.3-2.3-2.8-2.3-1.4 0-2.8.8-2.8 2.2 0 1.4.7 2 2.7 2.2 1 .2 1.5.5 1.5 1 0 .7-.4 1-1.3 1-1 0-1.4-.4-1.4-1.2h-1.6c0 1.6 1.1 2.4 3 2.4zM436.5 414.1c2.4 0 4.1-1.2 4.4-3.6h-1.8c-.2 1.4-1.2 2.1-2.6 2.1-1.8 0-2.9-1.3-2.9-3.6s1.2-3.7 3-3.7c1.4 0 2.1.7 2.3 2h1.9c-.2-2.3-2-3.5-4.3-3.5-2.8 0-4.9 2.1-4.9 5.1v.2c0 3 1.8 5 5 5zm9.2-1.3c-1.3 0-2-1-2-2.4v-.1c0-1.5.7-2.4 2-2.4 1.2 0 2 .9 2 2.4 0 1.6-.8 2.5-2 2.5zm0 1.3c2.1 0 3.7-1.4 3.7-3.7v-.1c0-2.3-1.6-3.8-3.7-3.8a3.6 3.6 0 00-3.8 3.8v.1c0 2.2 1.6 3.7 3.7 3.7zm7.7 0c1.2 0 2-.5 2.3-1.2v1.1h1.7v-7.3h-1.7v4.3c0 1.2-.8 1.8-1.7 1.8-1 0-1.4-.5-1.4-1.6v-4.5h-1.7v4.7c0 2 1 2.7 2.5 2.7zm6-.1h1.7v-4.3c0-1.2.8-1.8 1.7-1.8 1 0 1.5.5 1.5 1.6v4.5h1.7v-4.6c0-2-1-2.9-2.5-2.9-1.2 0-2 .6-2.4 1.3v-1.1h-1.7v7.3zm11 .1c.5 0 1 0 1.2-.2v-1.3a2 2 0 01-.8.1c-.6 0-.9-.3-.9-.9V408h1.6v-1.3H470V405h-1.7v1.6h-1v1.3h1v4c0 1.3.8 2.1 2.2 2.1zm2.7-.1h1.7v-3.8c0-1.6.9-2 2.4-2v-1.6c-1.3 0-2 .5-2.4 1.4v-1.3h-1.7v7.3zm5.6 0h1.7v-7.3h-1.7v7.3zm.8-8.5c.6 0 1-.4 1-1s-.4-1-1-1a1 1 0 00-1 1c0 .6.5 1 1 1zm6.2 8.6c1.9 0 3.1-.8 3.4-2.3h-1.7c-.1.7-.6 1-1.7 1-1.2 0-2-.7-2-2h5.4v-.6c0-2.6-1.7-3.7-3.5-3.7-2 0-3.6 1.5-3.6 3.8v.1c0 2.3 1.5 3.7 3.7 3.7zm-2-4.5c.2-1.2.9-1.8 2-1.8 1 0 1.6.5 1.7 1.8h-3.7zm9.5 4.5c1.8 0 2.9-.8 2.9-2.3 0-1.6-1-2-2.8-2.2-1.1-.2-1.5-.4-1.5-1 0-.5.5-.8 1.2-.8.8 0 1.2.3 1.3 1h1.6c-.2-1.7-1.4-2.3-2.9-2.3-1.4 0-2.7.8-2.7 2.2 0 1.4.7 2 2.6 2.2 1 .2 1.6.5 1.6 1 0 .7-.4 1-1.3 1-1 0-1.4-.4-1.5-1.2h-1.6c0 1.6 1.2 2.4 3 2.4zM596.5 414.1c2.4 0 4.1-1.2 4.4-3.6h-1.8c-.2 1.4-1.2 2.1-2.6 2.1-1.8 0-2.9-1.3-2.9-3.6s1.2-3.7 3-3.7c1.4 0 2.1.7 2.3 2h1.9c-.2-2.3-2-3.5-4.3-3.5-2.8 0-4.9 2.1-4.9 5.1v.2c0 3 1.8 5 5 5zm6-.1h1.6v-7.3h-1.7v7.3zm.8-8.5c.5 0 1-.4 1-1s-.5-1-1-1a1 1 0 00-1 1c0 .6.4 1 1 1zm5.4 8.6c.5 0 .9 0 1.1-.2v-1.3a2 2 0 01-.8.1c-.5 0-.8-.3-.8-.9V408h1.6v-1.3h-1.6V405h-1.7v1.6h-1v1.3h1v4c0 1.3.7 2.1 2.2 2.1zm2.7-.1h1.7v-7.3h-1.7v7.3zm.8-8.5c.6 0 1-.4 1-1s-.4-1-1-1a1 1 0 00-1 1c0 .6.5 1 1 1zm6.2 8.6c1.9 0 3.1-.8 3.3-2.3h-1.6c-.1.7-.7 1-1.7 1-1.2 0-2-.7-2-2h5.4v-.6c0-2.6-1.7-3.7-3.5-3.7-2 0-3.6 1.5-3.6 3.8v.1c0 2.3 1.5 3.7 3.7 3.7zm-2-4.5c.2-1.2.9-1.8 1.9-1.8 1 0 1.7.5 1.8 1.8h-3.7zm9.5 4.5c1.8 0 2.9-.8 2.9-2.3 0-1.6-1-2-2.8-2.2-1.1-.2-1.5-.4-1.5-1 0-.5.5-.8 1.2-.8.8 0 1.1.3 1.3 1h1.6c-.2-1.7-1.4-2.3-3-2.3-1.3 0-2.7.8-2.7 2.2 0 1.4.8 2 2.7 2.2 1 .2 1.6.5 1.6 1 0 .7-.5 1-1.4 1-1 0-1.3-.4-1.4-1.2h-1.6c0 1.6 1.2 2.4 3 2.4z" fill="#383738"/><path d="M247 331l66.5-27H360l58.5-22.5H461l45.5-26.5 42.5-1.5 40.5-17.5 86.5-15" stroke="#FE8161" stroke-width="2" stroke-linecap="round" stroke-linejoin="round"/><circle cx="589" cy="236" r="4" fill="#FE8161"/><circle cx="461" cy="281" r="4" fill="#FE8161"/><circle cx="335" cy="304" r="4" fill="#FE8161"/><circle cx="255" cy="409" r="8" fill="#FFD25F"/><circle cx="415" cy="409" r="8" fill="#7CECC5"/><circle cx="575" cy="409" r="8" fill="#A35D82"/><path opacity=".2" fill="#FE8161" d="M577 331h24v39h-24z"/><path opacity=".2" fill="#FE8161" d="M577 288h24v82h-24zM450 347h24v23h-24z"/><path opacity=".2" fill="#FE8161" d="M450 324h24v46h-24zM323 339h24v31h-24z"/><path opacity=".2" fill="#FE8161" d="M323 360h24v10h-24z"/></svg>