<svg width="54" height="54" fill="none" xmlns="http://www.w3.org/2000/svg">
  <path d="M33.2 26.6c0 2-.4 3.8-1 5.6a16 16 0 01-11.2 0A15.9 15.9 0 0121 21a15.9 15.9 0 0111.2 0c.6 1.7 1 3.6 1 5.6zM52.8 22H37.3l11-11c-1-1.1-1.9-2.3-3-3.3-1-1-2.1-2-3.3-2.9L31 16V.4a26.7 26.7 0 00-8.9 0v15.5l-11-11c-1.1.9-2.3 1.8-3.3 2.9-1 1-2 2.2-2.9 3.4l11 11H.4S0 25 0 26.5c0 1.5.1 3 .4 4.4h15.5l-11 11c1.7 2.4 3.9 4.5 6.3 6.2l11-11v15.6a26.8 26.8 0 008.9 0V37.3l10.9 11c1.2-1 2.3-1.9 3.3-3 1.1-1 2-2.1 3-3.3l-11-11h15.5a26.7 26.7 0 000-8.9z" fill="#FF4A00"/>
</svg>
